<svg width="95" height="95" viewBox="0 0 95 95" fill="none" xmlns="http://www.w3.org/2000/svg">
<circle cx="47.5" cy="47.5" r="47.5" fill="#EEC63A"/>
<path d="M49.0625 53.1719C48.6406 56.7812 47.3047 59.5703 45.0547 61.5391C42.8203 63.4922 39.8438 64.4688 36.125 64.4688C32.0938 64.4688 28.8594 63.0234 26.4219 60.1328C24 57.2422 22.7891 53.375 22.7891 48.5312V45.25C22.7891 42.0781 23.3516 39.2891 24.4766 36.8828C25.6172 34.4766 27.2266 32.6328 29.3047 31.3516C31.3828 30.0547 33.7891 29.4062 36.5234 29.4062C40.1484 29.4062 43.0547 30.4219 45.2422 32.4531C47.4297 34.4688 48.7031 37.2656 49.0625 40.8438H44.5391C44.1484 38.125 43.2969 36.1562 41.9844 34.9375C40.6875 33.7188 38.8672 33.1094 36.5234 33.1094C33.6484 33.1094 31.3906 34.1719 29.75 36.2969C28.125 38.4219 27.3125 41.4453 27.3125 45.3672V48.6719C27.3125 52.375 28.0859 55.3203 29.6328 57.5078C31.1797 59.6953 33.3438 60.7891 36.125 60.7891C38.625 60.7891 40.5391 60.2266 41.8672 59.1016C43.2109 57.9609 44.1016 55.9844 44.5391 53.1719H49.0625ZM68.3516 64H63.9922V35.1016L55.25 38.3125V34.375L67.6719 29.7109H68.3516V64Z" fill="black"/>
</svg>
